HIERARCHY
ROOT pelvis
{
	OFFSET 0.00 0.00 0.00
	CHANNELS 6 Xposition Yposition Zposition Xrotation Yrotation Zrotation
	JOINT lfemur
	{
		OFFSET 0.00000 4.04436 0.00000
		CHANNELS 3 Xrotation Yrotation Zrotation
		JOINT ltibia
		{
			OFFSET 0.00000 0.00000 -16.29375
			CHANNELS 3 Xrotation Yrotation Zrotation
			JOINT lfoot
			{
				OFFSET 0.00000 0.00000 -15.07135
				CHANNELS 3 Xrotation Yrotation Zrotation
				JOINT ltoes
				{
					OFFSET 4.08523 0.00000 0.00000
					CHANNELS 3 Xrotation Yrotation Zrotation
				}
			}
		}
	}
	JOINT rfemur
	{
		OFFSET 0.00000 -4.04436 0.00000
		CHANNELS 3 Xrotation Yrotation Zrotation
		JOINT rtibia
		{
			OFFSET 0.00000 0.00000 -16.29375
			CHANNELS 3 Xrotation Yrotation Zrotation
			JOINT rfoot
			{
				OFFSET 0.00000 0.00000 -15.07135
				CHANNELS 3 Xrotation Yrotation Zrotation
				JOINT rtoes
				{
					OFFSET 4.08523 0.00000 0.00000
					CHANNELS 3 Xrotation Yrotation Zrotation
				}
			}
		}
	}
	JOINT thorax
	{
		OFFSET -1.96850 0.00000 3.38723
		CHANNELS 6 Xposition Yposition Zposition Xrotation Yrotation Zrotation
		JOINT head
		{
			OFFSET 0.00000 0.00000 16.93583
			CHANNELS 6 Xposition Yposition Zposition Xrotation Yrotation Zrotation
		}
		JOINT lclavicle
		{
			OFFSET 0.00000 0.00000 14.46426
			CHANNELS 3 Xrotation Yrotation Zrotation
			JOINT lhumerus
			{
				OFFSET 0.00000 6.07503 0.73740
				CHANNELS 3 Xrotation Yrotation Zrotation
				JOINT lradius
				{
					OFFSET 0.00000 0.00000 -10.44175
					CHANNELS 3 Xrotation Yrotation Zrotation
					JOINT lhand
					{
						OFFSET 0.00000 0.00000 -9.67100
						CHANNELS 3 Xrotation Yrotation Zrotation
					}
				}
			}
		}
		JOINT rclavicle
		{
			OFFSET 0.00000 0.00000 14.46426
			CHANNELS 3 Xrotation Yrotation Zrotation
			JOINT rhumerus
			{
				OFFSET 0.00000 -6.07503 0.73740
				CHANNELS 3 Xrotation Yrotation Zrotation
				JOINT rradius
				{
					OFFSET 0.00000 0.00000 -10.44175
					CHANNELS 3 Xrotation Yrotation Zrotation
					JOINT rhand
					{
						OFFSET 0.00000 0.00000 -9.67100
						CHANNELS 3 Xrotation Yrotation Zrotation
					}
				}
			}
		}
	}
}
MOTION
Frames: 19
Frame Time:	0.0333333
 42.7794 10.5379 33.1172 0.3387 -0.2978 -85.9275 -3.9997 3.1142 -0.5619 -0.0000 6.8761 0.0000 0.0000 12.6275 5.2835 0.0000 -19.1485 -0.0000 3.9729 3.9418 2.9885 -0.0000 3.7532 0.0000 0.0000 13.1691 -7.9338 0.0000 -20.5247 -0.0000 42.6404 13.3562 36.5259 1.0668 5.2447 5.6024 42.2147 11.1280 53.4724 -7.4184 -16.8336 7.3584 -17.6292 0.0000 -8.2567 22.1339 -0.9286 19.7736 0.0000 -22.8961 -55.8959 6.5299 -3.1964 -0.0000 15.0696 -0.0000 8.9818 -18.6637 4.0297 -35.5583 0.0000 -34.2176 54.9751 -1.3773 -12.5513 0.0000
 42.7802 10.5843 33.1209 0.2687 -0.2818 -85.8966 -3.9982 3.0321 -0.8123 -0.0000 7.0165 0.0000 0.0000 12.6067 5.5196 0.0000 -18.9999 0.0000 4.0024 3.8734 3.1378 -0.0000 3.8642 -0.0000 0.0000 13.2145 -8.1283 0.0000 -20.5047 -0.0000 42.6335 13.4102 36.5428 1.0503 5.4900 5.6801 42.2284 11.1038 53.4788 -7.4608 -17.2791 6.9413 -17.6614 0.0000 -8.3216 21.6641 -0.8316 18.7706 -0.0000 -22.9893 -55.7727 6.2586 -3.3081 -0.0000 15.0738 -0.0000 8.8971 -18.6025 3.8923 -34.4929 -0.0000 -34.7536 54.4000 -1.2214 -12.5723 -0.0000
 42.7844 10.6295 33.1224 0.1930 -0.2756 -85.8398 -4.0073 2.9215 -0.9444 -0.0000 7.2300 0.0000 0.0000 12.5645 5.6072 0.0000 -18.9554 -0.0000 4.0129 3.7995 3.1816 -0.0000 4.0134 0.0000 0.0000 13.2079 -8.2375 0.0000 -20.4936 -0.0000 42.6248 13.4519 36.5574 0.9936 5.6867 5.7703 42.2420 11.0919 53.4850 -7.4687 -17.5356 6.5498 -17.6706 0.0000 -8.3730 21.1778 -0.6788 17.6097 0.0000 -23.2763 -55.5499 5.6590 -3.4351 -0.0000 15.1263 -0.0000 8.7449 -18.6329 3.8277 -33.1484 -0.0000 -35.1412 53.8347 -1.1034 -12.7480 0.0000
 42.7911 10.6725 33.1239 0.1337 -0.2731 -85.7837 -4.0317 2.8290 -1.1374 -0.0000 7.3891 0.0000 -0.0000 12.5358 5.7537 0.0000 -18.9308 -0.0000 4.0134 3.7216 3.1963 -0.0000 4.1536 0.0000 -0.0000 13.1636 -8.3147 0.0000 -20.4941 0.0000 42.6191 13.4898 36.5687 0.9539 5.8194 5.8923 42.2580 11.0934 53.4917 -7.4950 -17.5877 6.2263 -17.7261 0.0000 -8.3237 20.7275 -0.6083 16.3805 0.0000 -23.6294 -55.1576 5.3785 -3.3887 0.0000 15.1686 -0.0000 8.6837 -18.5994 3.8802 -32.1578 -0.0000 -35.4829 53.4939 -0.8730 -13.0435 0.0000
 42.7977 10.7117 33.1243 0.0839 -0.2603 -85.6889 -4.0386 2.7490 -1.3112 -0.0000 7.5040 -0.0000 0.0000 12.5114 5.8644 0.0000 -18.8622 -0.0000 4.0197 3.6676 3.0804 -0.0000 4.2355 -0.0000 0.0000 13.1551 -8.2735 0.0000 -20.4687 0.0000 42.6156 13.5155 36.5745 0.9075 5.8726 5.9633 42.2806 11.1103 53.4967 -7.4426 -17.4388 5.9982 -17.8119 0.0000 -8.2450 20.3948 -0.5114 15.2598 0.0000 -24.0886 -54.5097 4.8678 -3.4403 -0.0000 15.2253 -0.0000 8.6797 -18.4748 3.8939 -31.7978 0.0000 -35.5497 53.4153 -1.0885 -12.9346 0.0000
 42.8000 10.7426 33.1245 0.0627 -0.2615 -85.5727 -4.0459 2.6899 -1.4346 -0.0000 7.5438 0.0000 0.0000 12.5223 5.8954 0.0000 -18.8361 0.0000 4.0176 3.6496 2.9512 -0.0000 4.2186 0.0000 -0.0000 13.1515 -8.2839 0.0000 -20.4129 -0.0000 42.6017 13.5404 36.5748 0.8092 5.8604 6.0426 42.3108 11.1386 53.5027 -7.2810 -17.1672 5.7665 -17.8474 0.0000 -8.2310 20.2737 -0.4125 14.1016 0.0000 -24.5879 -53.8099 4.1007 -3.5144 0.0000 15.2841 -0.0000 8.6860 -18.3081 3.8485 -31.8501 -0.0000 -35.3557 53.4984 -1.0233 -12.8367 -0.0000
 42.7991 10.7624 33.1256 0.0703 -0.2819 -85.4651 -4.0540 2.6663 -1.4473 -0.0000 7.4952 -0.0000 -0.0000 12.5866 5.7747 0.0000 -18.8602 0.0000 4.0023 3.6595 2.8963 -0.0000 4.1407 -0.0000 0.0000 13.1415 -8.3373 0.0000 -20.3428 -0.0000 42.5859 13.5699 36.5735 0.6947 5.8308 6.0953 42.3395 11.1593 53.5088 -7.1552 -16.9851 5.5520 -17.8379 0.0000 -8.2344 20.3703 -0.3901 13.1668 0.0000 -25.0331 -53.5043 3.3155 -3.6052 0.0000 15.2959 -0.0000 8.7385 -18.1187 3.7818 -32.0837 -0.0000 -35.0117 53.7370 -0.9405 -12.9136 0.0000
 42.8026 10.7796 33.1261 0.0808 -0.2896 -85.3856 -4.0547 2.6650 -1.4249 -0.0000 7.4040 -0.0000 0.0000 12.5975 5.6716 0.0000 -18.7411 -0.0000 3.9849 3.6579 2.8900 -0.0000 4.0870 -0.0000 0.0000 13.1381 -8.3578 0.0000 -20.2862 0.0000 42.5843 13.6019 36.5738 0.6266 5.8250 6.1316 42.3651 11.1714 53.5092 -7.1421 -16.9660 5.3023 -17.7766 0.0000 -8.3335 20.5214 -0.4073 12.8653 0.0000 -25.3337 -53.5669 3.1097 -3.6351 -0.0000 15.3146 -0.0000 8.7791 -18.0269 3.7808 -32.2344 0.0000 -34.7281 54.0232 -1.0449 -12.9406 0.0000
 42.8079 10.7986 33.1265 0.0851 -0.2946 -85.3614 -4.0686 2.6753 -1.3688 -0.0000 7.3048 0.0000 0.0000 12.6217 5.6006 0.0000 -18.6651 -0.0000 3.9592 3.6517 2.9713 -0.0000 4.0379 0.0000 0.0000 13.1544 -8.4243 0.0000 -20.2862 -0.0000 42.5865 13.6325 36.5716 0.6077 5.8128 6.1314 42.3819 11.1693 53.5106 -7.2238 -17.1155 5.1311 -17.7188 0.0000 -8.4242 20.7666 -0.4624 12.9268 0.0000 -25.4578 -53.7788 3.7129 -3.5673 -0.0000 15.2826 0.0000 8.8507 -17.8995 3.8377 -32.3579 -0.0000 -34.5264 54.2592 -1.1440 -12.8634 0.0000
 42.8153 10.8142 33.1260 0.0972 -0.3002 -85.3978 -4.0919 2.7006 -1.3129 -0.0000 7.1855 -0.0000 0.0000 12.6488 5.5794 0.0000 -18.6301 -0.0000 3.9316 3.6673 2.9378 -0.0000 3.9308 0.0000 0.0000 13.1344 -8.3704 0.0000 -20.2101 -0.0000 42.5956 13.6535 36.5669 0.6203 5.7682 6.0997 42.3965 11.1496 53.5139 -7.3823 -17.4588 5.0250 -17.7281 0.0000 -8.4518 21.0817 -0.5655 13.4033 0.0000 -25.3984 -54.1141 4.3823 -3.5384 0.0000 15.2408 0.0000 8.8691 -17.8183 3.9646 -32.3101 -0.0000 -34.4326 54.4021 -1.0548 -12.9405 0.0000
 42.8268 10.8243 33.1231 0.1277 -0.3056 -85.4821 -4.1239 2.7317 -1.2553 -0.0000 7.0391 0.0000 0.0000 12.6804 5.6120 0.0000 -18.5728 0.0000 3.8963 3.7350 2.9321 -0.0000 3.6880 -0.0000 0.0000 13.2076 -8.3265 0.0000 -20.2171 -0.0000 42.6113 13.6620 36.5612 0.6532 5.6716 6.0730 42.4079 11.1213 53.5174 -7.5975 -17.8903 4.9501 -17.8134 0.0000 -8.4258 21.4548 -0.7309 14.1879 0.0000 -25.1244 -54.4134 5.0329 -3.5093 -0.0000 15.2478 -0.0000 8.8236 -17.8012 4.1073 -32.2742 -0.0000 -34.3582 54.3903 -1.0676 -13.0358 0.0000
 42.8405 10.8336 33.1226 0.1539 -0.3139 -85.6715 -4.1654 2.7480 -1.0605 -0.0000 6.9480 0.0000 0.0000 12.6823 5.5965 0.0000 -18.4950 -0.0000 3.8428 3.7961 3.0065 -0.0000 3.4593 0.0000 0.0000 13.2642 -8.2508 0.0000 -20.1513 0.0000 42.6377 13.6651 36.5577 0.7174 5.5753 6.0293 42.4082 11.1053 53.5217 -7.8452 -18.2297 5.0094 -17.8845 0.0000 -8.3604 21.7784 -0.8941 15.0145 0.0000 -24.7771 -54.6601 5.0374 -3.5088 -0.0000 15.2556 -0.0000 8.8651 -17.7961 4.2623 -32.4509 -0.0000 -34.2766 54.4670 -1.0467 -13.0685 -0.0000
 42.8543 10.8423 33.1235 0.1729 -0.3080 -85.9354 -4.2003 2.7601 -0.8906 -0.0000 6.8950 0.0000 -0.0000 12.6954 5.6638 0.0000 -18.5108 0.0000 3.7977 3.8124 3.1281 -0.0000 3.3297 0.0000 0.0000 13.2954 -8.1282 0.0000 -20.0989 0.0000 42.6623 13.6727 36.5566 0.7794 5.5291 6.0155 42.4010 11.1044 53.5257 -8.0762 -18.4602 5.1068 -17.8777 0.0000 -8.3554 22.0345 -1.0014 15.6063 0.0000 -24.4352 -54.9857 5.1667 -3.4747 0.0000 15.2648 0.0000 8.9251 -17.7963 4.3482 -32.7716 -0.0000 -34.1446 54.6628 -1.1420 -12.9541 0.0000
 42.8690 10.8488 33.1226 0.1823 -0.2917 -86.2377 -4.2283 2.7724 -0.6708 -0.0000 6.8643 -0.0000 -0.0000 12.6736 5.7254 0.0000 -18.4200 -0.0000 3.7600 3.8021 3.3090 -0.0000 3.2663 0.0000 0.0000 13.3476 -8.0343 0.0000 -20.0968 -0.0000 42.6918 13.6817 36.5532 0.8591 5.5018 6.0160 42.3903 11.1099 53.5291 -8.2893 -18.6124 5.2345 -17.8431 0.0000 -8.4010 22.2235 -1.0361 15.9883 0.0000 -24.1609 -55.3308 5.1590 -3.4991 0.0000 15.2613 -0.0000 8.9525 -17.8494 4.3567 -33.0996 0.0000 -33.9023 54.9603 -1.0852 -13.1222 0.0000
 42.8807 10.8532 33.1228 0.1852 -0.2795 -86.5584 -4.2538 2.7917 -0.4000 -0.0000 6.8417 -0.0000 0.0000 12.6419 5.7561 0.0000 -18.3796 -0.0000 3.7344 3.7797 3.5240 -0.0000 3.2414 0.0000 0.0000 13.3707 -7.9839 0.0000 -20.0801 -0.0000 42.7319 13.6905 36.5503 0.9548 5.4844 5.9552 42.3768 11.1257 53.5292 -8.4675 -18.6366 5.3990 -17.7980 0.0000 -8.4136 22.3023 -1.0206 16.2299 0.0000 -23.9734 -55.6274 5.2023 -3.5149 0.0000 15.2738 -0.0000 9.0041 -17.9471 4.3564 -33.4358 0.0000 -33.7131 55.1976 -1.1412 -13.0539 -0.0000
 42.8890 10.8538 33.1227 0.1849 -0.2614 -86.8424 -4.2647 2.8176 -0.1592 -0.0000 6.8190 0.0000 0.0000 12.6373 5.7806 0.0000 -18.4008 0.0000 3.7247 3.7547 3.6501 -0.0000 3.2454 0.0000 0.0000 13.3896 -7.8773 0.0000 -20.0640 0.0000 42.7691 13.6967 36.5471 1.0540 5.4702 5.8943 42.3630 11.1491 53.5269 -8.6101 -18.5373 5.5080 -17.8006 0.0000 -8.3972 22.3676 -1.0095 16.2845 0.0000 -23.8617 -55.8039 5.1554 -3.5561 -0.0000 15.2733 -0.0000 9.0517 -17.9838 4.3752 -33.8560 0.0000 -33.5909 55.4207 -1.2875 -13.0488 0.0000
 42.8991 10.8518 33.1217 0.1824 -0.2351 -87.1030 -4.2712 2.8375 0.0684 -0.0000 6.8197 0.0000 0.0000 12.5877 5.8149 0.0000 -18.3562 -0.0000 3.7217 3.7224 3.8002 -0.0000 3.2796 0.0000 0.0000 13.4129 -7.8057 0.0000 -20.0858 -0.0000 42.8060 13.7017 36.5436 1.1543 5.4697 5.8249 42.3552 11.1727 53.5205 -8.6777 -18.4087 5.5998 -17.8362 0.0000 -8.3755 22.3918 -0.9667 16.2103 0.0000 -23.8699 -55.7688 5.1197 -3.5811 0.0000 15.2699 -0.0000 9.0661 -18.0095 4.4123 -34.1360 0.0000 -33.5530 55.5656 -1.2977 -13.1027 0.0000
 42.9093 10.8484 33.1216 0.1759 -0.2112 -87.3367 -4.2767 2.8543 0.2597 -0.0000 6.8386 0.0000 0.0000 12.5360 5.8462 0.0000 -18.3362 0.0000 3.7233 3.6764 4.0216 -0.0000 3.3634 -0.0000 -0.0000 13.4049 -7.8355 0.0000 -20.1069 -0.0000 42.8377 13.7057 36.5433 1.2338 5.5073 5.7814 42.3513 11.2043 53.5110 -8.7145 -18.2314 5.6639 -17.8915 0.0000 -8.3528 22.3706 -0.9441 16.0605 0.0000 -23.9538 -55.6391 5.0889 -3.5675 0.0000 15.2478 -0.0000 9.0373 -18.0056 4.4560 -34.2303 -0.0000 -33.5668 55.5289 -1.3694 -13.1272 0.0000
 42.9177 10.8444 33.1203 0.1659 -0.1896 -87.4972 -4.2735 2.8620 0.3866 -0.0000 6.8779 -0.0000 0.0000 12.5117 5.8468 0.0000 -18.3952 0.0000 3.7363 3.6218 4.1993 -0.0000 3.4850 0.0000 0.0000 13.3649 -7.8922 0.0000 -20.0993 0.0000 42.8637 13.7157 36.5442 1.2860 5.5947 5.7311 42.3525 11.2241 53.5047 -8.7400 -18.1767 5.6929 -17.9254 0.0000 -8.3695 22.2890 -0.9541 15.7977 0.0000 -24.0714 -55.4586 5.0649 -3.5673 0.0000 15.2556 0.0000 9.0194 -18.0063 4.5236 -34.1786 -0.0000 -33.6087 55.3077 -1.6627 -13.0164 0.0000
